<svg viewBox="0 0 16 16" xmlns="http://www.w3.org/2000/svg">
  <path
    fill-rule="evenodd"
    clip-rule="evenodd"
    d="M6.66667 1.33337C5.5621 1.33337 4.66667 2.2288 4.66667 3.33337H4.00019H2.66667C2.29848 3.33337 2 3.63185 2 4.00004C2 4.36823 2.29848 4.66671 2.66667 4.66671H3.34279L3.44796 12.0286C3.46358 13.1219 4.35433 14 5.44776 14H10.5522C11.6457 14 12.5364 13.1219 12.552 12.0286L12.6572 4.66671H13.3333C13.7015 4.66671 14 4.36823 14 4.00004C14 3.63185 13.7015 3.33337 13.3333 3.33337H11.9998H11.3333C11.3333 2.2288 10.4379 1.33337 9.33333 1.33337H6.66667ZM10 3.33337C10 2.96518 9.70152 2.66671 9.33333 2.66671H6.66667C6.29848 2.66671 6 2.96518 6 3.33337H10ZM5.33333 4.66671H4.67626L4.78116 12.0096C4.78636 12.374 5.08328 12.6667 5.44776 12.6667H10.5522C10.9167 12.6667 11.2136 12.374 11.2188 12.0096L11.3237 4.66671H10.6667H5.33333ZM6.66667 6.00004C7.03486 6.00004 7.33333 6.29852 7.33333 6.66671V10.6667C7.33333 11.0349 7.03486 11.3334 6.66667 11.3334C6.29848 11.3334 6 11.0349 6 10.6667V6.66671C6 6.29852 6.29848 6.00004 6.66667 6.00004ZM10 6.66671C10 6.29852 9.70152 6.00004 9.33333 6.00004C8.96514 6.00004 8.66667 6.29852 8.66667 6.66671V10.6667C8.66667 11.0349 8.96514 11.3334 9.33333 11.3334C9.70152 11.3334 10 11.0349 10 10.6667V6.66671Z"
  />
</svg>
