<svg viewBox="0 0 20 20" xmlns="http://www.w3.org/2000/svg">
  <path
    d="M9.99984 12.5C9.98545 12.5 9.97116 12.4996 9.95695 12.4989C9.88289 12.4951 9.81138 12.4817 9.74366 12.4598C9.6218 12.4206 9.50717 12.3526 9.41042 12.2559L7.05217 9.89763C6.72673 9.57219 6.72673 9.04455 7.05217 8.71912C7.3776 8.39368 7.90524 8.39368 8.23068 8.71912L9.1665 9.65494L9.1665 4.99996C9.1665 4.53972 9.5396 4.16663 9.99984 4.16663C10.4601 4.16663 10.8332 4.53972 10.8332 4.99996L10.8332 9.65506L11.77 8.71823C12.0954 8.39279 12.6231 8.39279 12.9485 8.71823C13.2739 9.04366 13.2739 9.5713 12.9485 9.89674L10.5895 12.2557C10.5065 12.3387 10.4104 12.4006 10.3078 12.4412C10.2125 12.4791 10.1086 12.5 9.99984 12.5Z"
  />
  <path
    d="M4.1665 15V12.5C4.1665 12.0397 4.5396 11.6666 4.99984 11.6666C5.46007 11.6666 5.83317 12.0397 5.83317 12.5L5.83317 14.1666H14.1665V12.5C14.1665 12.0397 14.5396 11.6666 14.9998 11.6666C15.4601 11.6666 15.8332 12.0397 15.8332 12.5V15C15.8332 15.4602 15.4601 15.8333 14.9998 15.8333H5.001"
  />
  <path d="M4.99984 15.8333C4.5396 15.8333 4.1665 15.4602 4.1665 15L4.99984 15.8333Z" />
</svg>
