<svg width="216" height="216" viewBox="0 0 216 216" fill="none" xmlns="http://www.w3.org/2000/svg">
  <path
    fill-rule="evenodd"
    clip-rule="evenodd"
    d="M105.373 100.092L79.0302 73.7497L73.7606 79.0192L100.103 105.361L105.373 100.092ZM179.13 100.097L152.788 73.7553L147.518 79.0248L173.861 105.367L179.13 100.097ZM215.995 136.969L189.652 110.627L184.383 115.896L210.725 142.238L215.995 136.969ZM215.995 79.0259L152.779 142.241L147.509 136.971L210.725 73.7566L215.995 79.0259ZM31.6218 100.097L5.27929 73.7554L0.00971059 79.0249L26.3522 105.367L31.6218 100.097ZM42.1518 110.633L68.4943 136.975L63.2247 142.245L36.8822 115.902L42.1518 110.633ZM142.246 79.0259L79.0305 142.241L73.7611 136.971L136.977 73.7566L142.246 79.0259ZM142.243 136.975L115.901 110.633L110.631 115.902L136.974 142.245L142.243 136.975ZM68.4902 79.0259L5.27429 142.241L0.00495321 136.971L63.2208 73.7566L68.4902 79.0259Z"
    fill="url(#paint0_linear_244_62)"
  />
  <path
    fill-rule="evenodd"
    clip-rule="evenodd"
    d="M79.0227 -0.000579834L105.365 26.3415L100.096 31.611L73.7531 5.26892L79.0227 -0.000579834ZM5.27238 0.00715216L31.6149 26.3492L26.3453 31.6187L0.00279979 5.27665L5.27238 0.00715216ZM115.9 31.6217L142.242 5.27955L136.973 0.0100548L110.63 26.3522L115.9 31.6217ZM215.998 5.27162L189.656 31.6137L184.386 26.3442L210.729 0.0021269L215.998 5.27162ZM142.245 63.2264L115.903 36.8843L110.633 42.1538L136.975 68.4959L142.245 63.2264ZM152.78 0.00551312L179.122 26.3476L173.853 31.6171L147.51 5.27501L152.78 0.00551312ZM152.771 68.4909L179.114 42.1488L173.844 36.8793L147.502 63.2214L152.771 68.4909ZM189.653 36.8843L215.995 63.2264L210.726 68.4959L184.383 42.1538L189.653 36.8843ZM42.15 31.6198L68.4925 5.27772L63.223 0.00821993L36.8804 26.3503L42.15 31.6198ZM105.37 42.1431L79.0278 68.4852L73.7582 63.2158L100.101 36.8736L105.37 42.1431ZM189.649 179.113L215.991 152.771L210.722 147.501L184.379 173.843L189.649 179.113ZM42.1509 36.8826L68.4934 63.2247L63.2238 68.4942L36.8813 42.1521L42.1509 36.8826ZM5.27007 68.4925L31.6126 42.1504L26.343 36.8809L0.000488281 63.223L5.27007 68.4925ZM79.0241 147.504L105.367 173.846L100.097 179.115L73.7546 152.773L79.0241 147.504ZM115.9 179.12L142.242 152.778L136.973 147.508L110.63 173.85L115.9 179.12ZM115.901 184.382L142.243 210.725L136.973 215.994L110.631 189.652L115.901 184.382ZM179.124 173.852L152.781 147.51L147.511 152.779L173.854 179.121L179.124 173.852ZM179.121 189.653L152.778 215.995L147.509 210.726L173.851 184.383L179.121 189.653ZM31.6156 173.854L5.27309 147.512L0.00351266 152.781L26.346 179.123L31.6156 173.854ZM68.486 152.776L42.1435 179.118L36.8739 173.849L63.2164 147.507L68.486 152.776ZM68.492 210.724L42.1495 184.382L36.8799 189.652L63.2224 215.994L68.492 210.724ZM189.651 184.377L215.994 210.719L210.724 215.988L184.382 189.646L189.651 184.377ZM79.0265 215.99L105.369 189.648L100.099 184.378L73.7569 210.72L79.0265 215.99ZM31.6207 189.655L5.27819 215.997L0.0086119 210.727L26.3511 184.385L31.6207 189.655Z"
    fill="url(#paint1_linear_244_62)"
  />
  <defs>
    <linearGradient
      id="paint0_linear_244_62"
      x1="215.995"
      y1="142.245"
      x2="166.21"
      y2="10.7997"
      gradientUnits="userSpaceOnUse"
    >
      <stop stop-color="#B5BFFF" />
      <stop offset="1" stop-color="#4E66FF" />
    </linearGradient>
    <linearGradient
      id="paint1_linear_244_62"
      x1="53.1002"
      y1="-15.3669"
      x2="53.1002"
      y2="226.979"
      gradientUnits="userSpaceOnUse"
    >
      <stop stop-color="white" stop-opacity="0.3" />
      <stop offset="1" stop-color="white" stop-opacity="0.05" />
    </linearGradient>
  </defs>
</svg>
